<svg xmlns="http://www.w3.org/2000/svg" xmlns:xlink="http://www.w3.org/1999/xlink" xmlns:bx="https://boxy-svg.com"><defs><clipPath id="clip0"><path fill="#fff" d="M0 0h16v16H0z"/></clipPath><clipPath id="a"><path d="M0 0h71v55H0z"/></clipPath></defs><symbol id="arrow_left" viewBox="0 0 19 14"><path d="M7.028 0L0 6.97.03 7 0 7.03 7.028 14l2.115-2.097-3.39-3.36H19V5.426H5.784l3.358-3.33L7.027 0z"/></symbol><symbol id="rouble" viewBox="0 0 10 10"><path d="M1.86,0V4.81H.72V6.22H1.86V10H3.41V6.22H5.25c2.23,0,4-.69,4-3.11S7.49,0,5.25,0ZM7.69,3.11c0,1.37-1.07,1.7-2.38,1.7H3.41V1.41H5.32c1.3,0,2.38.32,2.38,1.69Z"/><path d="M.72,7.14H7.13V8.21H.72Z"/></symbol><symbol id="infinity" viewBox="0 0 10 10"><path fill="none" stroke-width="1" stroke-miterlimit="10" d="M5 4.984L3.115 6.29c-1.04.717-2.47-.066-2.47-1.306s1.43-2.023 2.47-1.305L5 4.983zM5 4.984L6.885 6.29c1.04.717 2.47-.066 2.47-1.306S7.924 2.96 6.884 3.68L5 4.983z"/></symbol><symbol id="sandglass" viewBox="0 0 10 10"><path fill="none" stroke-miterlimit="10" d="M5 5l3.015 4.314h-6.03zm0 0L8.015.685h-6.03z"/><path fill="none" d="M4.668 3.564h.662v.43h-.662z"/><path d="M3.376 8.107h3.248v.85H3.376z"/></symbol><symbol id="facebook" viewBox="0 0 32 32"><path d="M10 13h3v-2.8c0-1.1.3-2.7 1.1-3.8.8-1.1 1.8-1.8 3.8-1.8 3.2 0 4.4.5 4.4.5l-.7 3.8s-1.4-.3-2.4-.3S17 9 17 10v3h4.6l-.3 4H17v12h-4V17h-3v-4z"/></symbol><symbol id="twitter" viewBox="0 0 32 32"><path d="M29 9.3c-.9.4-1.8.7-2.8.8 1-.6 1.8-1.6 2.2-2.7-1 .6-2 1-3.1 1.2-1-1-2.3-1.6-3.7-1.6-2.7 0-4.9 2.2-4.9 4.9 0 .4 0 .8.1 1.1-4.1-.2-7.7-2.2-10.1-5.1-.5.7-.7 1.6-.7 2.5 0 1.7.9 3.2 2.2 4.1-.8 0-1.6-.2-2.2-.6v.1c0 2.4 1.7 4.4 4 4.8-.4.1-.8.2-1.3.2-.3 0-.6 0-.9-.1.6 2 2.4 3.4 4.6 3.4-1.7 1.3-3.8 2.1-6.1 2.1-.4 0-.8 0-1.2-.1 2.2 1.4 4.8 2.2 7.5 2.2 9.1 0 14-7.5 14-14v-.6c.9-.7 1.7-1.6 2.4-2.6"/></symbol><symbol id="vkontakte" viewBox="0 0 32 32"><path d="M15.83 25.176h1.63s.45-.09.723-.362c.27-.27.18-.724.18-.724s0-2.17.996-2.533c.994-.362 2.26 2.08 3.708 3.076.995.724 1.81.543 1.81.543l3.618-.09s1.9-.09.995-1.628c-.09-.09-.542-1.086-2.713-3.166-2.262-2.17-1.99-1.81.814-5.428 1.72-2.262 2.353-3.62 2.172-4.16-.18-.544-1.447-.453-1.447-.453h-4.16s-.272 0-.544.09c-.18.09-.36.453-.36.453s-.634 1.72-1.54 3.257c-1.808 3.076-2.532 3.257-2.894 3.076-.724-.452-.543-1.81-.543-2.804 0-2.985.452-4.252-.905-4.614-.452-.09-.814-.18-1.9-.18-1.447 0-2.714 0-3.438.36-.452.272-.814.725-.633.815.27 0 .905.18 1.176.633.452.543.452 1.9.452 1.9s.27 3.528-.543 3.98c-.543.27-1.357-.27-2.985-3.166-.814-1.447-1.447-3.076-1.447-3.076s.09-.27-.18-.452-.634-.27-.634-.27l-3.89.09s-.543 0-.814.27c-.18.27 0 .724 0 .724S5.608 18.483 9.045 22.1c3.166 3.258 6.785 3.077 6.785 3.077z"/></symbol><symbol id="instagram" viewBox="0 0 32 32"><path d="M23.4 4H8.6C6.1 4 4 6.1 4 8.6v14.7C4 25.9 6.1 28 8.6 28h14.7c2.6 0 4.6-2.1 4.6-4.6V8.6c.1-2.5-2-4.6-4.5-4.6zm1.3 2.8h.5v4h-4.1V6.7l3.6.1zm-12.1 6.7c.8-1.1 2-1.8 3.4-1.8s2.7.7 3.4 1.8c.5.7.8 1.5.8 2.5 0 2.3-1.9 4.2-4.2 4.2s-4.2-1.9-4.2-4.2c0-.9.3-1.8.8-2.5zm13.1 9.9c0 1.3-1 2.3-2.3 2.3H8.6c-1.3 0-2.3-1-2.3-2.3v-9.8h3.6c-.3.8-.5 1.6-.5 2.5 0 3.6 2.9 6.6 6.6 6.6 3.6 0 6.6-2.9 6.6-6.6 0-.9-.2-1.7-.5-2.5h3.6v9.8z"/></symbol><symbol id="youtube" viewBox="0 0 32 32"><path d="M28.54,6.92a3.8,3.8,0,0,0-2.14-1c-1.76-.2-3.54-.3-5.32-.35s-3.55,0-5.33,0-3.55,0-5.33,0S6.87,5.76,5.11,6A3.79,3.79,0,0,0,3,6.92,4,4,0,0,0,1.78,9a20.08,20.08,0,0,0-.44,3.38c-.06,1.15-.07,2.29-.07,3.39s0,2.24.06,3.39a19.91,19.91,0,0,0,.44,3.38A4,4,0,0,0,3,24.57a3.79,3.79,0,0,0,2.13,1c1.76.2,3.54.3,5.32.35s3.55,0,5.33,0,3.55,0,5.33,0,3.56-.15,5.32-.35a3.79,3.79,0,0,0,2.13-1,4,4,0,0,0,1.2-2.05,20.05,20.05,0,0,0,.44-3.38c.06-1.13.06-2.28.06-3.39h0v-.06h0A30.38,30.38,0,0,0,29.74,9a4,4,0,0,0-1.2-2.05Z"/><path d="M21.25,15.2l-4.93-2.57L12.24,10.5l-.45-.24V20.65l.45-.23,4.51-2.33,4.51-2.34.52-.27Z" fill="#2d2d44"/></symbol><symbol id="skype" viewBox="0 0 32 32"><path d="M27.35 17.673c.1-.5.1-1 .1-1.5 0-6.1-4.9-11-11-11-.6 0-1.2 0-1.8.1-1-.7-2.3-1.1-3.6-1.1-3.6 0-6.6 3-6.6 6.6 0 1.3.4 2.6 1.1 3.6-.1.6-.1 1.1-.1 1.7 0 6.1 4.9 11 11 11 .7 0 1.4-.1 2-.2 1 .6 2.2 1 3.5 1 3.6 0 6.6-3 6.6-6.6 0-1.3-.4-2.6-1.2-3.6zm-9.8 6.6c-3.5.2-5.1-.6-6.6-2-1.7-1.6-1-3.4.4-3.5 1.4-.1 2.2 1.6 2.9 2 .7.5 3.5 1.5 4.9-.2 1.6-1.8-1.1-2.8-3-3.1-2.8-.4-6.3-1.9-6-4.9.3-3 2.5-4.5 4.9-4.7 3-.3 4.9.5 6.5 1.8 1.8 1.5.8 3.2-.3 3.4-1.1.1-2.4-2.5-4.9-2.6-2.6 0-4.3 2.7-1.1 3.5 3.2.8 6.6 1.1 7.8 4 1.1 3-2 6.1-5.5 6.3z"/></symbol><symbol id="slack" viewBox="0 0 32 32"><path d="M 30.179 20.29 L 26.949 21.367 L 28.066 24.707 C 28.504 26.06 27.788 27.532 26.432 27.969 C 24.904 28.4 23.579 27.542 23.161 26.34 L 22.045 22.996 L 15.387 25.224 L 16.503 28.566 C 17.022 30.164 15.926 31.943 14.071 31.943 C 12.903 31.943 11.944 31.194 11.601 30.197 L 10.482 26.856 L 7.254 27.93 C 5.746 28.366 4.405 27.509 3.982 26.298 C 3.546 24.946 4.262 23.473 5.618 23.036 L 8.848 21.961 L 6.694 15.556 L 3.465 16.629 C 1.665 17.139 0.067 15.846 0.067 14.186 C 0.067 13.102 0.743 12.085 1.83 11.735 L 5.061 10.66 L 3.943 7.32 C 3.504 5.965 4.223 4.493 5.579 4.055 C 6.934 3.618 8.408 4.333 8.848 5.687 L 9.966 9.028 L 16.621 6.801 L 15.507 3.458 C 14.971 1.813 16.15 0.067 17.955 0.067 C 19.042 0.067 20.059 0.743 20.412 1.829 L 21.529 5.171 L 24.758 4.096 C 26.112 3.657 27.588 4.375 28.026 5.728 C 28.467 7.08 27.747 8.552 26.392 8.989 L 23.161 10.064 L 25.315 16.469 L 28.547 15.395 C 30.196 14.862 31.943 16.038 31.943 17.837 C 31.943 18.924 31.265 19.939 30.179 20.29 M 18.236 11.752 L 11.582 13.977 L 13.732 20.389 L 20.388 18.166 L 18.236 11.752 Z"/></symbol><symbol id="new_slack" viewBox="0 0 32 32"><path d="M12.798 16.886a2.668 2.668 0 00-2.667 2.667v6.671a2.667 2.667 0 105.334 0v-6.671a2.67 2.67 0 00-2.667-2.667zM3.463 19.553a2.67 2.67 0 005.338 0v-2.669H6.132a2.67 2.67 0 00-2.669 2.669zM12.801 3.502h-.003a2.67 2.67 0 000 5.338h2.667V6.166a2.665 2.665 0 00-2.664-2.664zM6.114 15.531h6.684a2.67 2.67 0 000-5.338H6.114a2.67 2.67 0 000 5.338zM26.142 10.192a2.663 2.663 0 00-2.664 2.664v2.674h2.667a2.67 2.67 0 000-5.338h-.003zM16.816 6.171v6.691a2.667 2.667 0 105.333 0V6.171a2.667 2.667 0 10-5.333 0zM22.148 26.222a2.667 2.667 0 00-2.667-2.667h-2.667v2.669a2.668 2.668 0 005.334-.002zM26.165 16.884h-6.684a2.67 2.67 0 000 5.338h6.684a2.67 2.67 0 000-5.338z"/></symbol><symbol id="github" viewBox="0 0 32 32"><path d="M16 3.987c-6.904 0-12.5 5.596-12.5 12.5 0 5.523 3.58 10.208 8.548 11.86.626.116.854-.27.854-.602 0-.296-.01-1.083-.017-2.125-3.477.755-4.21-1.676-4.21-1.676-.57-1.444-1.39-1.828-1.39-1.828-1.134-.776.087-.76.087-.76 1.255.088 1.915 1.288 1.915 1.288 1.115 1.91 2.926 1.358 3.638 1.04.113-.81.436-1.36.793-1.673-2.775-.313-5.694-1.386-5.694-6.176 0-1.364.488-2.48 1.287-3.354-.127-.317-.556-1.588.124-3.31 0 0 1.05-.335 3.438 1.283a11.964 11.964 0 0 1 3.13-.42c1.062.004 2.13.143 3.13.42 2.386-1.618 3.434-1.282 3.434-1.282.682 1.723.253 2.994.124 3.31.8.874 1.285 1.99 1.285 3.354 0 4.803-2.923 5.86-5.707 6.168.45.387.848 1.15.848 2.317 0 1.67-.015 3.017-.015 3.427 0 .335.225.724.86.602 4.963-1.658 8.54-6.34 8.54-11.86 0-6.905-5.596-12.5-12.5-12.5"/></symbol><symbol id="google" viewBox="0 0 512 512"><path d="M457.732 216.625c2.628 14.041 4.063 28.743 4.063 44.098C461.796 380.688 381.481 466 260.204 466c-116.023 0-210-93.977-210-210s93.977-210 210-210c56.704 0 104.077 20.867 140.44 54.73l-59.204 59.197v-.135c-22.046-21.002-50-31.762-81.236-31.762-69.297 0-125.604 58.537-125.604 127.841 0 69.29 56.306 127.968 125.604 127.968 62.87 0 105.653-35.965 114.46-85.312h-114.46v-81.902h197.528z"/></symbol><symbol id="telegram" viewBox="0 0 32 32"><path d="M 23.326 28.341 C 23.121 28.341 22.919 28.28 22.743 28.163 L 16.144 23.686 L 12.605 26.233 C 12.013 26.658 11.179 26.359 10.992 25.654 L 9.217 18.921 L 2.866 16.491 C 2.119 16.206 1.963 15.218 2.584 14.715 C 2.664 14.648 2.756 14.594 2.853 14.557 L 26.998 4.948 C 27.734 4.636 28.533 5.239 28.436 6.033 C 28.431 6.059 28.428 6.087 28.422 6.114 L 24.348 27.498 C 24.254 27.986 23.826 28.341 23.326 28.341 Z M 16.723 21.568 L 22.604 25.557 L 25.773 8.917 L 14.319 19.938 L 16.696 21.55 C 16.706 21.556 16.714 21.562 16.723 21.568 Z M 11.83 20.683 L 12.619 23.664 L 14.313 22.444 L 12.092 20.937 C 11.991 20.87 11.902 20.782 11.83 20.683 Z M 6.096 15.501 L 10.456 17.169 C 10.768 17.289 11.003 17.551 11.089 17.874 L 11.642 19.97 C 11.668 19.727 11.78 19.5 11.956 19.329 L 22.868 8.828 L 6.096 15.501 Z"/></symbol><symbol id="odnoklassniki" viewBox="0 0 9 16"><g id="Page-1" stroke="none" stroke-width="1" fill="none" fill-rule="evenodd"><g id="post" transform="translate(-1376.000000, -5726.000000)" fill="#FFFFFF" fill-rule="nonzero"><path d="M1380.44418,5734.16234 C1378.21377,5734.16234 1376.40566,5732.33513 1376.40566,5730.08117 C1376.40566,5727.8272 1378.21377,5726 1380.44418,5726 C1382.67459,5726 1384.48269,5727.8272 1384.48269,5730.08117 C1384.48269,5732.33513 1382.67459,5734.16234 1380.44418,5734.16234 Z M1380.44418,5728.4487 C1379.55243,5728.44971 1378.82977,5729.18 1378.82877,5730.08117 C1378.82877,5730.98275 1379.55201,5731.71364 1380.44418,5731.71364 C1381.33634,5731.71364 1382.05958,5730.98275 1382.05958,5730.08117 C1382.05958,5729.17958 1381.33634,5728.4487 1380.44418,5728.4487 Z M1381.9213,5737.46727 L1384.47481,5740.04776 C1384.76134,5740.33633 1384.87352,5740.7576 1384.76897,5741.15252 C1384.66443,5741.54744 1384.3591,5741.85585 1383.96825,5741.9613 C1383.57741,5742.06675 1383.1606,5741.95319 1382.87518,5741.66348 L1380.44418,5739.20681 L1378.01319,5741.66347 C1377.72777,5741.95318 1377.31095,5742.06674 1376.92011,5741.96129 C1376.52927,5741.85584 1376.22393,5741.54744 1376.11939,5741.15252 C1376.01485,5740.7576 1376.12702,5740.33632 1376.41356,5740.04775 L1378.96666,5737.46766 C1378.11203,5737.30266 1377.29205,5736.98966 1376.54291,5736.54247 C1376.01181,5736.2156 1375.84142,5735.51676 1376.16147,5734.97796 C1376.48151,5734.43916 1377.17194,5734.26249 1377.70715,5734.58245 C1379.42887,5735.599 1381.56369,5735.57894 1383.26641,5734.53021 C1383.60899,5734.31205 1384.04085,5734.29566 1384.39865,5734.48724 C1384.75646,5734.67882 1384.98557,5735.04912 1384.99934,5735.45809 C1385.01311,5735.86705 1384.80943,5736.25224 1384.46534,5736.46795 C1383.68452,5736.95462 1382.82239,5737.29327 1381.9213,5737.46727 Z" id="Combined-Shape"/></g></g></symbol><symbol id="course" viewBox="0 0 16 16"><path d="M9 3v3H6v3H3v3h9V3z"/></symbol><symbol id="intensive" viewBox="0 0 16 16"><path d="M11.7 0h-4l-3 7h3l-2 7 7-9h-4z"/></symbol><symbol id="my-intensive" viewBox="0 0 16 16"><path d="M5.48 6.962c.448 0 .864-.147 1.218-.39l1.036-2.528c-.18-1.188-1.117-2.097-2.255-2.097-1.267 0-2.294 1.122-2.294 2.507S4.213 6.962 5.48 6.962zM.508 11.52zM9.51 8.74l-.194-.22H5.98l.36-1H3.603c-1.72 0-3.093 2.118-3.093 4h7.973L9.51 8.74z"/><path d="M11.006 7.52l-2.508 6.843 6.994-9.357-3.657-.11 2.867-4.88-4.275.347L7.492 7.52z"/></symbol><symbol id="user" viewBox="0 0 16 16"><circle cx="8" cy="7.7" r="2.3" transform="translate(0 -3)"/><path d="M13 12v-1c0-1.7-1.3-3-3-3H6c-1.7 0-3 1.3-3 3v1h10z"/></symbol><symbol id="login" viewBox="0 0 16 16"><path d="M11 1c-.7 0-1.7 1.2-2 3h1c.2-1.3.6-2 1-2 .7 0 2 2.2 2 5s-1.3 5-2 5c-.4 0-.8-.7-1-2H9c.3 1.8 1.3 3 2 3 1.1 0 3-2.7 3-6s-1.9-6-3-6z"/><path d="M2 6h4V4l4 3-4 3V8H2z"/></symbol><symbol id="logout" viewBox="0 0 16 16"><path d="M5 13c.7 0 1.7-1.2 2-3H6c-.2 1.3-.6 2-1 2-.7 0-2-2.2-2-5s1.3-5 2-5c.4 0 .8.7 1 2h1c-.3-1.8-1.3-3-2-3-1.1 0-3 2.7-3 6s1.9 6 3 6z"/><path d="M6 6h4V4l4 3-4 3V8H6z"/></symbol><symbol id="program" viewBox="0 0 13 10"><path d="M0 0h2v2H0zm0 4h2v2H0zm4 1h7v1H4zm0 4h7v1H4zm0-8h9v1H4zM0 8h2v2H0z"/></symbol><symbol id="all-courses" viewBox="0 0 13 10"><path d="M1.5 0h1.9v1.9H1.5zM5.5 0h1.9v1.9H5.5zM1.5 4h1.9v1.9H1.5zM5.5 4h1.9v1.9H5.5zM9.5 4h1.9v1.9H9.5zM1.5 8h1.9v1.9H1.5zM5.5 8h1.9v1.9H5.5zM9.5 8h1.9v1.9H9.5z"/></symbol><symbol id="mail" viewBox="0 0 32 32"><path d="M28 24.2V12.4c0 .4-.6.7-.9 1-2.7 2.1-4.8 3.8-6.5 5.2-.5.4-.9.8-1.2 1-.3.3-.8.6-1.3.9-.5.3-1.1.5-1.5.5h-.1c-.5 0-1-.2-1.6-.5-.6-.2-1-.5-1.3-.8-.3-.3-.7-.6-1.3-1.1-1.6-1.4-3.6-3.1-6.4-5.2-.4-.3-.9-.7-.9-1v11.8c0 .1-.1.4 0 .5.1.1.1.3.2.3h22.6c.1 0 .1-.2.2-.3.1-.1 0-.4 0-.5zm0-16.1v-.4s.1-.1.1-.2v-.2l-.1-.1-.1-.1s-.1-.1-.2-.1H5.1c-.1 0-.2.1-.3.2-.1.1-.1.2-.2.3 0 1.7.8 3.2 2.3 4.4 2 1.6 4 3.2 6.2 4.9.1 0 .3.2.5.4s.5.4.7.6c.2.1.4.3.7.5.3.2.5.4.8.5.3.1.4.2.7.2h.1c.2 0 .4-.1.7-.2.3-.1.5-.3.8-.5.3-.2.5-.4.7-.5.2-.1.4-.4.7-.6.3-.2.5-.4.5-.4 2.1-1.7 4.2-3.3 6.2-4.9.5-.4.9-1 1.4-1.8.5-.8.4-1.4.4-2zm2-.6v16.7c0 .7-.1 1.4-.6 1.9s-.9.9-1.6.9H5.2c-.7 0-1.1-.4-1.6-.9S3 24.9 3 24.2V7.5c0-.7.1-1.3.6-1.8S4.5 5 5.2 5h22.6c.7 0 1.1.3 1.6.7.5.4.6 1.1.6 1.8z"/></symbol><symbol id="eye-crossed" viewBox="0 0 24 20"><path fill="none" stroke="#B3B3B3" stroke-width="1.2" stroke-miterlimit="10" d="M22.17 9.92s-4.48 6-10 6-10-6-10-6 4.48-6 10-6 10 6 10 6z"/><circle fill="none" stroke="#B3B3B3" stroke-width="1.2" stroke-miterlimit="10" cx="12.17" cy="9.92" r="2.58"/><path class="icon-cross-bar" fill="none" stroke="#B3B3B3" stroke-width="1.2" stroke-miterlimit="10" d="M20.67 1.42l-17 17"/></symbol><symbol id="pencil" viewBox="0 0 14 16"><path fill-rule="evenodd" d="M0 12v3h3l8-8-3-3-8 8zm3 2H1v-2h1v1h1v1zm10.3-9.3L12 6 9 3l1.3-1.3a.996.996 0 0 1 1.41 0l1.59 1.59c.39.39.39 1.02 0 1.41z"/></symbol><symbol id="trashcan" viewBox="0 0 12 16"><path fill-rule="evenodd" d="M11 2H9c0-.55-.45-1-1-1H5c-.55 0-1 .45-1 1H2c-.55 0-1 .45-1 1v1c0 .55.45 1 1 1v9c0 .55.45 1 1 1h7c.55 0 1-.45 1-1V5c.55 0 1-.45 1-1V3c0-.55-.45-1-1-1zm-1 12H3V5h1v8h1V5h1v8h1V5h1v8h1V5h1v9zm1-10H2V3h9v1z"/></symbol><symbol id="knuckle" viewBox="0 0 54 44"><path fill-rule="evenodd" d="M51.334 23.706c-.674 1.292-1.854 1.92-3.61 1.92h-5.206v2.137h5.207l.065-.002c-.322 1.17-1.257 2.806-3.97 2.806h-3.256v2.136h2.29a19.486 19.486 0 0 1-2.004 2.523c-.477.175-1.05.28-1.737.28H32.12l-.076.004c-.019.002-1.998.12-3.148-.956a2.55 2.55 0 0 1-.712-1.2h3.71a4.918 4.918 0 0 0 3.916-1.958l2.53-4.19a4.675 4.675 0 0 0 .581-4.434h12.774a4.65 4.65 0 0 1-.36.934zM15.737 37.643h6.111c.057.004.158.008.295.008.82 0 2.922-.146 4.408-1.525.164-.152.31-.318.45-.488.137.17.284.336.45.488 1.484 1.38 3.586 1.525 4.406 1.525.137 0 .238-.004.295-.008h5.938c-3.201 2.3-7.077 3.58-11.193 3.58a19.203 19.203 0 0 1-11.16-3.58zM6.21 27.761l.064.002h5.207v-2.137H6.275c-2.751 0-3.675-1.682-3.984-2.854h13.33v3.082c0 4.135 3.365 7.5 7.501 7.5h2.695a2.557 2.557 0 0 1-.713 1.2c-1.15 1.076-3.128.958-3.144.956l-7.073-.003c-.846 0-1.519-.16-2.054-.414a19.229 19.229 0 0 1-1.894-2.39h2.497v-2.136H10.18c-2.714 0-3.649-1.636-3.97-2.806zm26.22-10.147v-5.706c0-.76.618-1.378 1.378-1.378a1.38 1.38 0 0 1 1.377 1.378v5.706c0 .198-.044.389-.123.564l-.065-.002h-2.441a1.357 1.357 0 0 1-.126-.562zm-4.89 0v-5.706c0-.76.617-1.378 1.376-1.378.76 0 1.378.618 1.378 1.378v5.706c0 .195-.048.387-.128.563a3.486 3.486 0 0 0-1.955.612 1.383 1.383 0 0 1-.672-1.175zm-4.891 0v-5.706c0-.76.617-1.378 1.377-1.378a1.38 1.38 0 0 1 1.377 1.378v5.706c0 .759-.618 1.377-1.377 1.377-.76 0-1.377-.618-1.377-1.377zm-4.892 0v-5.706a1.378 1.378 0 0 1 2.755 0v5.706c0 .759-.618 1.377-1.377 1.377a1.38 1.38 0 0 1-1.378-1.377zm1.378 3.513a3.5 3.5 0 0 0 2.445-.995 3.498 3.498 0 0 0 4.892-.002c.132.128.273.245.423.352a3.485 3.485 0 0 0-.219 1.208 3.518 3.518 0 0 0 3.514 3.513h3.618a1.069 1.069 0 0 0 0-2.136H30.19a1.38 1.38 0 0 1-1.377-1.378c0-.76.618-1.377 1.377-1.377h4.807c.335 0 .637.2.769.507l1.132 2.641c.354.828.24 1.79-.302 2.512l-2.525 4.182a2.773 2.773 0 0 1-2.177 1.064h-8.772a5.37 5.37 0 0 1-5.365-5.364v-5.009c.424.181.89.282 1.378.282zm7.762-18.346c10.138 0 18.463 7.893 19.166 17.855h-8.051l-.283-.658a2.957 2.957 0 0 0-.692-.99 3.5 3.5 0 0 0 .284-1.374v-5.706a3.517 3.517 0 0 0-3.513-3.514c-.95 0-1.813.38-2.446.996a3.501 3.501 0 0 0-4.891 0 3.498 3.498 0 0 0-4.89 0 3.5 3.5 0 0 0-2.446-.996 3.517 3.517 0 0 0-3.513 3.514v8.728H7.73c.703-9.962 9.028-17.855 19.167-17.855zM48.45 20.636C47.744 9.36 38.35.4 26.897.4 15.444.4 6.049 9.36 5.342 20.636H0v1.069c0 .051.056 4.465 3.982 5.724.21 1.347 1.008 4.04 3.97 4.955a21.72 21.72 0 0 0 1.624 2.524c.263.444.598.877 1.024 1.266a21.59 21.59 0 0 0 16.297 7.43c6.158 0 11.843-2.542 15.886-6.955 1.1-.734 1.738-1.76 2.104-2.7.182-.274.365-.547.536-.83l.11-.184.082-.437c3.318-.776 4.183-3.659 4.403-5.07C53.944 26.17 54 21.757 54 21.706v-1.069h-5.549z"/></symbol><symbol id="gear" viewBox="0 0 18 19"><path stroke="none" fill="#e2e2e2" d="M3.41 15.153c-.664.36-1.507.12-1.883-.532l-.71-1.23c-.377-.654-.163-1.502.485-1.9l.448-.273c.28-.172.508-.58.508-.91v-1.94c0-.33-.23-.738-.51-.91L1.3 7.18C.656 6.787.44 5.936.816 5.284l.71-1.23c.378-.654 1.22-.893 1.887-.53l.46.25c.29.157.757.15 1.043-.014l1.682-.97c.286-.165.525-.565.533-.895l.015-.524C7.165.616 7.795 0 8.547 0H9.97c.753 0 1.38.608 1.4 1.365l.014.528c.008.33.247.73.533.896l1.682.97c.285.165.75.172 1.04.014l.466-.252c.663-.36 1.506-.12 1.882.53l.71 1.233c.377.653.163 1.5-.485 1.898l-.447.274c-.28.173-.51.58-.51.91l.002 1.942c0 .33.228.735.51.908l.447.274c.645.395.86 1.246.485 1.898l-.71 1.232c-.378.653-1.22.892-1.888.53l-.46-.252c-.29-.157-.757-.15-1.043.014l-1.683.97c-.286.165-.525.565-.533.895l-.014.524c-.02.756-.65 1.37-1.4 1.37H8.546c-.755 0-1.382-.608-1.402-1.365l-.013-.53c-.01-.33-.248-.73-.534-.895l-1.682-.97c-.286-.166-.752-.172-1.042-.015l-.464.253zm3.798-2.266c1.96 1.132 4.467.46 5.6-1.5 1.13-1.96.46-4.468-1.5-5.6-1.96-1.13-4.468-.46-5.6 1.5-1.132 1.96-.46 4.468 1.5 5.6z"/></symbol><symbol id="hat" viewBox="0 0 24 24"><g fill="none" fill-rule="evenodd" transform="matrix(1.4094 0 0 1.4094 1.632 1.299)"><path stroke="#ffffff" stroke-width="1.5" d="M4.75 7.617v2.766l2.765 1.73 2.735-1.732V7.62l-5.5-.004v.001z"/><path fill="#ffffff" d="M2 10h1V5H2z"/><path stroke="#ffffff" stroke-width="1.5" d="M7.544.87l-6.08 3.552 6.08 3.699 6.005-3.699L7.544.87z"/></g></symbol><symbol id="icon-check-bold" viewBox="0 0 13 9"><path fill="none" stroke-width="2" d="M1 2.746l4.5 4.5 6.125-6.125"/></symbol><symbol id="help" viewBox="0 0 18 18"><g fill="none" fill-rule="evenodd" transform="matrix(.91834 0 0 .91834 1 1.05)"><circle cx="8" cy="8" r="8" stroke="currentColor"/><text fill="currentColor" font-family="TT Norms Pro" font-size="12" font-weight="bold" white-space="pre"><tspan x="5" y="13">?</tspan></text></g></symbol><symbol id="settings" viewBox="0 0 15 13"><g fill="#ffffff" fill-rule="evenodd"><path d="M3.539 0l-3.54 6.13 3.54 6.129h7.077l3.538-6.13L10.616 0H3.539zM1.155 6.13L4.115 1h5.924l2.96 5.13-2.96 5.129H4.116l-2.961-5.13z"/><path d="M7.077 8.228A2.1 2.1 0 0 1 4.98 6.13a2.1 2.1 0 0 1 2.098-2.098A2.1 2.1 0 0 1 9.175 6.13a2.1 2.1 0 0 1-2.098 2.098m0-5.196A3.101 3.101 0 0 0 3.98 6.13a3.102 3.102 0 0 0 3.098 3.098 3.102 3.102 0 0 0 3.098-3.098 3.101 3.101 0 0 0-3.098-3.098"/></g></symbol><symbol id="career" viewBox="0 0 16 16"><path fill-rule="evenodd" clip-rule="evenodd" d="M10.854 2.468H14V13H1V2.468h3.146c.044-.183.105-.363.185-.538.172-.38.425-.724.743-1.014A3.47 3.47 0 0 1 6.187.238a3.722 3.722 0 0 1 2.626 0 3.47 3.47 0 0 1 1.113.678c.318.29.571.635.743 1.014.08.175.141.355.185.538zm-1.12 0a2.138 2.138 0 0 0-.574-.854 2.374 2.374 0 0 0-.762-.464 2.547 2.547 0 0 0-1.796 0 2.374 2.374 0 0 0-.762.464 2.138 2.138 0 0 0-.573.854h4.466zm3.183.988H2.083v3.62h3.25V5.1h4.334v1.975h3.25v-3.62zM8.583 9.38H6.417V6.089h2.166v3.29zm4.334-1.317h-3.25v2.304H5.333V8.063h-3.25v3.95h10.834v-3.95z" fill="#fff"/></symbol><symbol id="company" viewBox="0 0 16 16"><path fill-rule="evenodd" clip-rule="evenodd" d="M5.333 2h7.584v10H5.333V2zM4.25 1H14v12H1V6h3.25V1zm0 6H2.083v5H4.25V7zm2.167-4h2.166v1H6.417V3zm5.416 0H9.667v1h2.166V3zM6.417 6h2.166v1H6.417V6zm5.416 0H9.667v1h2.166V6zM6.417 9h2.166v1H6.417V9zm5.416 0H9.667v1h2.166V9z" fill="#fff"/></symbol><symbol id="chapter_arrow" viewBox="0 0 16 15"><g stroke="currentColor" fill="none" fill-rule="evenodd"><path d="M8.912 2.62l5.088 5-5.089 5m5.089-5H0" bx:origin="0.607 0.5" stroke-width="2"/></g></symbol><symbol id="chapter_knuckle" viewBox="0 0 17 16"><g fill="none" fill-rule="evenodd"><g transform="translate(-433 -560)" fill="currentColor"><g transform="translate(341 92)"><g transform="translate(79 377)"><g transform="translate(6 84)"><path d="M21.401 17.887l-1.626 2.59a1.81 1.81 0 0 1-1.401.659h-5.646c-1.905 0-3.453-1.49-3.453-3.323v-3.101a2.324 2.324 0 0 0 2.46-.442c.408.38.962.616 1.574.616a2.3 2.3 0 0 0 1.575-.617c.085.079.176.151.272.218-.09.233-.14.484-.14.748 0 1.2 1.014 2.176 2.261 2.176h2.329c.38 0 .688-.297.688-.662a.675.675 0 0 0-.688-.662h-2.329c-.489 0-.886-.383-.886-.853s.397-.853.886-.853h3.095a.54.54 0 0 1 .494.314l.73 1.636c.227.513.153 1.11-.195 1.556zM9.275 9.177c0-.472.397-.854.886-.854s.887.382.887.853v3.534c0 .47-.398.853-.887.853s-.886-.383-.886-.853V9.176zm3.148 0c0-.472.398-.854.886-.854.489 0 .887.382.887.853v3.534c0 .47-.398.853-.887.853-.488 0-.886-.383-.886-.853V9.176zm3.148 0c0-.472.398-.854.886-.854.49 0 .887.382.887.853v3.534c0 .121-.03.24-.082.349-.466.003-.9.142-1.259.38a.85.85 0 0 1-.432-.73V9.177zm3.148 0c0-.472.398-.854.887-.854s.886.382.886.853v3.534a.813.813 0 0 1-.079.35l-.041-.002H18.8a.808.808 0 0 1-.082-.348V9.176zm4.179 6.728l-.586-1.323-.182-.408a1.833 1.833 0 0 0-.445-.613c.118-.267.183-.557.183-.851V9.176c0-1.2-1.015-2.176-2.262-2.176-.612 0-1.167.236-1.574.617A2.3 2.3 0 0 0 16.457 7a2.3 2.3 0 0 0-1.574.617A2.298 2.298 0 0 0 13.31 7c-.612 0-1.166.236-1.574.617A2.3 2.3 0 0 0 10.161 7C8.914 7 7.9 7.976 7.9 9.176V17.813c0 2.562 2.166 4.646 4.829 4.646h5.646a3.21 3.21 0 0 0 2.52-1.213l1.63-2.594a2.805 2.805 0 0 0 .374-2.747z" id="Fill-1"/></g></g></g></g></g></symbol><symbol id="chapter_lock" viewBox="0 0 12 14"><g fill="currentColor" fill-rule="nonzero"><path d="M1.5 7.5v5h9v-5h-9zM0 6h12v8H0V6z"/><path d="M3.5 6h5V3.5C8.5 2.672 7.828 2 7 2H5c-.828 0-1.5.672-1.5 1.5V6zM5 .5h2c1.657 0 3 1.343 3 3v4H2v-4c0-1.657 1.343-3 3-3z"/></g></symbol><symbol id="chapter_shield" viewBox="0 0 46 46"><path clip-rule="evenodd" fill="none" stroke="currentColor" stroke-miterlimit="10" d="M8.34 7.63l14.43-1.3 14.61 1.3v25.99l-14.6 8.12-14.44-8.13V7.63z" stroke-width="6"/></symbol><symbol id="chapter_synopsis" viewBox="0 0 40 35"><g fill="none" fill-rule="evenodd" transform="translate(-1.391 -6.609)"><path d="M-868-87H498v2151H-868z"/><g transform="matrix(1.44345 0 0 1.44345 -8.916 -3.99)"><g fill="currentColor"><path d="M12 8.307v21.95h17.394v-8.354l5.584-4.07-1.923-2.565-3.661 2.67V8.306H12zm2.15 2.129h13.094v9.069l-3.125 2.277-.691 2.426 2.614.138 1.202-.876v4.66H14.15V10.436z"/></g></g></g></symbol><symbol id="test_wrong" viewBox="0 0 8 8"><path d="M3.14,10.09,10,3.21" transform="translate(-2.43 -2.5)" fill="none" stroke="#f26537" stroke-miterlimit="10" stroke-width="2"/><path d="M10,10.09,3.14,3.21" transform="translate(-2.43 -2.5)" fill="none" stroke="#f26537" stroke-miterlimit="10" stroke-width="2"/></symbol><symbol id="test_done" viewBox="0 0 10 8"><path d="M2.37,5,6,8.79l5.35-5.74" transform="translate(-1.64 -2.38)" fill="none" stroke="#4eb543" stroke-miterlimit="10" stroke-width="2"/></symbol><symbol id="locked" viewBox="0 0 16 21"><path d="M8 16c1.1 0 2-.9 2-2s-.9-2-2-2-2 .9-2 2 .9 2 2 2zm6-9h-1V5c0-2.76-2.24-5-5-5S3 2.24 3 5v2H2C.9 7 0 7.9 0 9v10c0 1.1.9 2 2 2h12c1.1 0 2-.9 2-2V9c0-1.1-.9-2-2-2zM4.9 5c0-1.71 1.39-3.1 3.1-3.1 1.71 0 3.1 1.39 3.1 3.1v2H4.9V5zM14 19H2V9h12v10z"/></symbol><symbol id="unlocked" viewBox="0 0 16 21"><path d="M8 16c1.1 0 2-.9 2-2s-.9-2-2-2-2 .9-2 2 .9 2 2 2zm6-9h-1V5c0-2.76-2.24-5-5-5S3 2.24 3 5h1.9c0-1.71 1.39-3.1 3.1-3.1 1.71 0 3.1 1.39 3.1 3.1v2H2C.9 7 0 7.9 0 9v10c0 1.1.9 2 2 2h12c1.1 0 2-.9 2-2V9c0-1.1-.9-2-2-2zm0 12H2V9h12v10z"/></symbol><symbol id="sandglass-large" viewBox="0 0 16 19"><path fill-rule="evenodd" clip-rule="evenodd" d="M1.12287 1.57664C0.652503 0.916037 1.13613 0 1.94707 0H14.0529C14.8639 0 15.3475 0.916037 14.8771 1.57664L9.23484 9.50092L14.8771 17.4233C15.3475 18.0839 14.8639 19 14.0529 19H1.94707C1.13607 19 0.652465 18.0839 1.12293 17.4233L6.76516 9.50092L1.12287 1.57664ZM4.60634 16H11.3937L8.0001 11.235L4.60634 16ZM3.89389 2L6.74883 6.00961L9.25641 6.00224L12.1061 2H3.89389Z"/></symbol><symbol id="career-start" viewBox="0 0 16 16"><path fill-rule="evenodd" clip-rule="evenodd" d="M14.787 1.214l.06.33c.508 2.77-.252 5.912-2.249 8.169.102.28.2.68.2 1.174 0 1.002-.407 2.321-1.856 3.77L10.6 15l-.344-.343-2.198-2.197-.202-.202-.465-.466a5.382 5.382 0 01-.378.818c-.299.51-.65.85-1.058 1.057-.402.203-.818.257-1.206.27-.194.005-.39 0-.576-.005h-.03a13.21 13.21 0 00-.53-.005 3.527 3.527 0 00-1.088.162l-.92.306.306-.92c.111-.351.166-.719.163-1.088.002-.177-.002-.35-.005-.53l-.001-.029a9.517 9.517 0 01-.003-.577c.011-.387.065-.803.268-1.205.208-.41.547-.76 1.057-1.057a5.35 5.35 0 01.819-.38l-.466-.465-.202-.202-2.198-2.198L1 5.4l.343-.343c1.449-1.45 2.769-1.857 3.771-1.857.495 0 .892.1 1.173.201 2.257-1.997 5.4-2.757 8.17-2.25l.33.06v.002zM6.479 10.88l.147.146c-.108.381-.26.749-.452 1.095-.221.38-.445.572-.657.68-.22.111-.474.156-.798.166a9.55 9.55 0 01-.522-.003l-.035-.001c-.175-.005-.366-.01-.562-.006-.19.003-.388.013-.594.038.024-.207.035-.405.038-.594.003-.195-.002-.387-.007-.562v-.035a9.579 9.579 0 01-.004-.523c.01-.324.055-.578.165-.798.109-.213.3-.436.682-.657.266-.155.62-.307 1.094-.452l.147.148c-.118.13-.243.278-.359.44-.233.328-.475.773-.475 1.267v.485h.485c.494 0 .939-.242 1.266-.476.154-.111.3-.231.44-.359v.001zm2.618 1.247l1.493 1.492c1.008-1.137 1.238-2.087 1.239-2.733 0-.138-.01-.265-.028-.38a8.854 8.854 0 01-2.703 1.621h-.001zM5.495 4.199a8.855 8.855 0 00-1.621 2.704l-1.492-1.49C3.518 4.401 4.468 4.17 5.114 4.17c.138 0 .266.01.38.027l.001.001zm8.454-2.147c-3.707-.522-7.962 1.414-9.314 5.612l3.703 3.703c4.197-1.352 6.133-5.607 5.61-9.315zM11.77 4.23v2.543h-.97v-.888L8.2 8.485 7.513 7.8l2.6-2.6h-.886v-.97H11.77z" fill="#fff"/></symbol><symbol id="icon-calendar" viewBox="0 0 14 16"><path fill-rule="evenodd" d="M13 2h-1v1.5c0 .28-.22.5-.5.5h-2c-.28 0-.5-.22-.5-.5V2H6v1.5c0 .28-.22.5-.5.5h-2c-.28 0-.5-.22-.5-.5V2H2c-.55 0-1 .45-1 1v11c0 .55.45 1 1 1h11c.55 0 1-.45 1-1V3c0-.55-.45-1-1-1zm0 12H2V5h11v9zM5 3H4V1h1v2zm6 0h-1V1h1v2zM6 7H5V6h1v1zm2 0H7V6h1v1zm2 0H9V6h1v1zm2 0h-1V6h1v1zM4 9H3V8h1v1zm2 0H5V8h1v1zm2 0H7V8h1v1zm2 0H9V8h1v1zm2 0h-1V8h1v1zm-8 2H3v-1h1v1zm2 0H5v-1h1v1zm2 0H7v-1h1v1zm2 0H9v-1h1v1zm2 0h-1v-1h1v1zm-8 2H3v-1h1v1zm2 0H5v-1h1v1zm2 0H7v-1h1v1zm2 0H9v-1h1v1z"/></symbol><symbol id="book" viewBox="0 0 16 16"><path fill-rule="evenodd" d="M3 5h4v1H3V5zm0 3h4V7H3v1zm0 2h4V9H3v1zm11-5h-4v1h4V5zm0 2h-4v1h4V7zm0 2h-4v1h4V9zm2-6v9c0 .55-.45 1-1 1H9.5l-1 1-1-1H2c-.55 0-1-.45-1-1V3c0-.55.45-1 1-1h5.5l1 1 1-1H15c.55 0 1 .45 1 1zm-8 .5L7.5 3H2v9h6V3.5zm7-.5H9.5l-.5.5V12h6V3z"/></symbol><symbol id="drag" viewBox="0 0 535 535"><path fill="currentColor" d="M439.721 66.708c0 8.976-1.731 17.442-5.199 25.398-3.471 7.956-8.061 14.994-13.771 21.114-5.712 6.12-12.546 10.914-20.502 14.382-7.956 3.468-16.422 5.202-25.396 5.202-8.979 0-17.442-1.734-25.398-5.202-7.956-3.468-14.892-8.262-20.808-14.382-5.916-6.12-10.608-13.158-14.076-21.114s-5.202-16.422-5.202-25.398 1.734-17.544 5.202-25.704 8.16-15.3 14.076-21.42S341.499 8.67 349.455 5.202C357.411 1.734 365.877 0 374.853 0s17.439 1.734 25.396 5.202c7.956 3.468 14.79 8.262 20.502 14.382s10.302 13.26 13.771 21.42c3.466 8.16 5.199 16.728 5.199 25.704zm0 201.349c0 9.383-1.731 18.053-5.199 26.01-3.471 7.955-8.061 14.891-13.771 20.807s-12.546 10.609-20.502 14.076c-7.956 3.469-16.422 5.203-25.396 5.203-8.979 0-17.442-1.734-25.398-5.203-7.956-3.467-14.892-8.16-20.808-14.076s-10.608-12.852-14.076-20.807c-3.468-7.957-5.202-16.627-5.202-26.01 0-8.977 1.734-17.545 5.202-25.705 3.468-8.16 8.16-15.198 14.076-21.114s12.852-10.608 20.808-14.076c7.956-3.468 16.422-5.202 25.398-5.202s17.439 1.734 25.396 5.202c7.956 3.468 14.79 8.16 20.502 14.076s10.302 12.954 13.771 21.114c3.466 8.16 5.199 16.728 5.199 25.705zm-1.836 201.347c0 8.979-1.632 17.34-4.896 25.092s-7.752 14.484-13.464 20.195c-5.712 5.713-12.444 10.201-20.196 13.465s-15.912 4.896-24.479 4.896c-8.568 0-16.729-1.635-24.48-4.896-7.752-3.264-14.484-7.752-20.196-13.465-5.712-5.711-10.198-12.443-13.464-20.195-3.264-7.752-4.896-16.113-4.896-25.092 0-8.568 1.632-16.729 4.896-24.479 3.266-7.752 7.752-14.586 13.464-20.502s12.444-10.51 20.196-13.771c7.752-3.264 15.912-4.896 24.48-4.896 8.565 0 16.728 1.633 24.479 4.896s14.484 7.854 20.196 13.771c5.712 5.916 10.2 12.75 13.464 20.502s4.896 15.911 4.896 24.479zM226.134 66.708c0 8.976-1.734 17.442-5.202 25.398s-8.058 14.994-13.77 21.114-12.546 10.914-20.502 14.382c-7.956 3.468-16.422 5.202-25.398 5.202s-17.442-1.734-25.398-5.202c-7.956-3.468-14.892-8.262-20.808-14.382-5.916-6.12-10.608-13.158-14.076-21.114s-5.202-16.422-5.202-25.398 1.734-17.544 5.202-25.704 8.16-15.3 14.076-21.42S127.908 8.67 135.864 5.202 152.286 0 161.262 0s17.442 1.734 25.398 5.202 14.79 8.262 20.502 14.382 10.302 13.26 13.77 21.42c3.468 8.16 5.202 16.728 5.202 25.704zm0 201.349c0 9.383-1.734 18.053-5.202 26.01-3.468 7.955-8.058 14.891-13.77 20.807s-12.546 10.609-20.502 14.076c-7.956 3.469-16.422 5.203-25.398 5.203s-17.442-1.734-25.398-5.203c-7.956-3.467-14.892-8.16-20.808-14.076s-10.608-12.852-14.076-20.807c-3.468-7.957-5.202-16.627-5.202-26.01 0-8.977 1.734-17.545 5.202-25.705 3.468-8.16 8.16-15.198 14.076-21.114s12.852-10.608 20.808-14.076 16.422-5.202 25.398-5.202 17.442 1.734 25.398 5.202 14.79 8.16 20.502 14.076 10.302 12.954 13.77 21.114 5.202 16.728 5.202 25.705zm0 201.347c0 9.383-1.734 18.053-5.202 26.01-3.468 7.955-8.058 14.895-13.77 20.811s-12.546 10.605-20.502 14.076c-7.956 3.467-16.422 5.199-25.398 5.199s-17.442-1.732-25.398-5.199c-7.956-3.471-14.892-8.16-20.808-14.076s-10.608-12.855-14.076-20.811c-3.468-7.957-5.202-16.627-5.202-26.01 0-8.977 1.734-17.545 5.202-25.705 3.468-8.16 8.16-15.197 14.076-21.113s12.852-10.605 20.808-14.074c7.956-3.471 16.422-5.201 25.398-5.201s17.442 1.73 25.398 5.201c7.956 3.469 14.79 8.158 20.502 14.074s10.302 12.953 13.77 21.113 5.202 16.729 5.202 25.705z"/></symbol><symbol id="tutor-cabinet" viewBox="0 0 16 16"><path fill-rule="evenodd" clip-rule="evenodd" d="M3 4a1 1 0 100-2 1 1 0 000 2zm0 1c.37 0 .718-.101 1.016-.277l.824.824A3.983 3.983 0 004 8c0 .778.222 1.503.606 2.118l-1.377 1.07a1.5 1.5 0 10.663.751l1.346-1.046A3.986 3.986 0 008 12c.642 0 1.248-.151 1.786-.42l1.317 1.977a1 1 0 10.832-.555l-1.318-1.977a3.997 3.997 0 001.297-2.198l1.156.128a1.5 1.5 0 10.033-1.002l-1.107-.123a3.99 3.99 0 00-1.379-2.855l.661-.991a1.5 1.5 0 10-.887-.473l-.605.909A3.983 3.983 0 008 4c-.924 0-1.775.314-2.453.84l-.824-.824A2 2 0 103 5zm5 6a3 3 0 100-6 3 3 0 000 6zm7-2.5a.5.5 0 11-1 0 .5.5 0 011 0z"/></symbol><symbol id="school" viewBox="0 0 16 16"><path fill-rule="evenodd" clip-rule="evenodd" d="M0 5l1.275-.68L7.5 1l6.225 3.32L15 5l-1.275.68L11 7.133v4.53l-3.5 2.153L4 11.662V7.133L3 6.6V11H2V6.067l-.725-.387L0 5zm5 2.667v3.207l2.5 1.539 2.5-1.538V7.667L7.5 9 5 7.667zm2.5-.027L2.55 5 7.5 2.36 12.45 5 7.5 7.64z" fill="#fff"/></symbol><symbol id="team" viewBox="0 0 16 16"><g clip-path="url(#clip0)"><path fill-rule="evenodd" clip-rule="evenodd" d="M12 6a2 2 0 100-4 2 2 0 000 4zM.218 8.556A2.539 2.539 0 00.061 9c-.04.162-.061.33-.061.5v.5h3V9H1.115a1.571 1.571 0 01.205-.341 1.875 1.875 0 01.55-.48c.079-.043.16-.08.24-.108.07-.025.14-.043.21-.055.06-.01.121-.016.18-.016h1V7h-1c-.083 0-.165.005-.246.015-.568.068-1.092.366-1.483.756-.223.223-.416.49-.553.785zm15.588.052a2.782 2.782 0 00-.57-.829l-.007-.008C14.783 7.325 14.162 7 13.5 7h-1v1h1c.337 0 .716.173 1.021.479a1.765 1.765 0 01.364.521H13v1h3v-.5c0-.17-.021-.338-.061-.5a2.37 2.37 0 00-.133-.392zM4 5a1 1 0 100-2 1 1 0 000 2zm7-1a1 1 0 102 0 1 1 0 00-2 0zM8 9a1 1 0 100-2 1 1 0 000 2zm3.986 4c.01.082.014.165.014.25V14H4v-.75c0-.085.005-.168.014-.25.126-1.15 1.116-2 2.386-2h3.2c1.27 0 2.26.85 2.386 2zm-6.96 0c.116-.554.616-1 1.374-1h3.2c.758 0 1.258.446 1.374 1H5.026zM4 6a2 2 0 100-4 2 2 0 000 4zm6 2a2 2 0 11-4 0 2 2 0 014 0z" fill="#fff"/></g></symbol><symbol id="target" viewBox="0 0 60 60"><path d="M10 10H7.414l-4-4H5a1 1 0 0 0 1-1V3.414l4 4V10zM30 0a29.97 29.97 0 0 0-18.323 6.263L5.707.293A1 1 0 0 0 4 1v3H1a1 1 0 0 0-.707 1.707l6 6A.996.996 0 0 0 7 12h3.586l18.707 18.707a.997.997 0 0 0 1.414 0 .999.999 0 0 0 0-1.414l-2.767-2.766c.582-.34 1.265-.527 2.06-.527 2.206 0 4 1.794 4 4s-1.794 4-4 4-4-1.794-4-4a1 1 0 1 0-2 0c0 3.309 2.691 6 6 6s6-2.691 6-6-2.691-6-6-6c-1.345 0-2.538.372-3.512 1.074l-4.232-4.232A11.908 11.908 0 0 1 30 18c6.617 0 12 5.383 12 12s-5.383 12-12 12-12-5.383-12-12c0-1.819.41-3.583 1.219-5.241a1 1 0 0 0-1.797-.877A13.85 13.85 0 0 0 16 30c0 7.72 6.28 14 14 14s14-6.28 14-14-6.28-14-14-14a13.89 13.89 0 0 0-9.158 3.428l-4.241-4.241C20.285 11.848 24.997 10 30 10c11.028 0 20 8.972 20 20s-8.972 20-20 20-20-8.972-20-20c0-3.915 1.141-7.714 3.298-10.987a1 1 0 1 0-1.67-1.1A21.904 21.904 0 0 0 8 30c0 12.131 9.869 22 22 22s22-9.869 22-22S42.131 8 30 8c-5.537 0-10.749 2.057-14.813 5.773L12 10.586V8.57A27.975 27.975 0 0 1 30 2c15.439 0 28 12.561 28 28S45.439 58 30 58 2 45.439 2 30a27.883 27.883 0 0 1 4.305-14.91 1 1 0 1 0-1.692-1.067A29.89 29.89 0 0 0 0 30c0 16.542 13.458 30 30 30s30-13.458 30-30S46.542 0 30 0z" fill-rule="evenodd"/></symbol><symbol id="snow" viewBox="0 0 22 19"><path stroke="white" stroke-width="2" d="M21.373 9.1H0M5.907.5l10.185 17.641M16.026.5L5.841 18.141"/></symbol><symbol id="discount" viewBox="0 0 16 16"><path fill-rule="evenodd" clip-rule="evenodd" d="M3 2V1h1.41l.3.3c.48.48.75.7 1.29.7s.8-.22 1.3-.7l.29-.3h.82l.3.3c.48.48.75.7 1.29.7s.8-.22 1.3-.7l.29-.3H13v14h-1.41l-.3-.3c-.49-.48-.73-.7-1.29-.7s-.8.22-1.3.7l-.29.3H7.6l-.3-.3C6.8 14.23 6.56 14 6 14s-.8.22-1.3.7l-.29.3H3V2zm9 0c-.3.3-.6.6-1 .78-.28.14-.6.22-1 .22-.98 0-1.5-.5-2-1-.5.5-1.02 1-2 1-.4 0-.72-.08-1-.22-.4-.19-.7-.48-1-.78v12c.3-.3.6-.6 1-.79.27-.13.6-.21 1-.21 1 0 1.5.5 2 1 .5-.5 1-1 2-1 .4 0 .73.08 1 .21.4.2.7.5 1 .79V2zM6.5 5a.5.5 0 110 1 .5.5 0 010-1zm1.5.5a1.5 1.5 0 11-3 0 1.5 1.5 0 013 0zM9.5 11a.5.5 0 100-1 .5.5 0 000 1zm0 1a1.5 1.5 0 100-3 1.5 1.5 0 000 3zm1.35-6.15l.36-.35-.71-.7-.35.35-5 5-.36.35.71.7.35-.35 5-5z" fill="#fff"/></symbol><symbol id="discord" viewBox="0 0 71 55"><g clip-path="url(#a)"><path d="M60.1045 4.8978c-4.5253-2.0764-9.378-3.6062-14.4518-4.48238-.0924-.01691-.1847.025349-.2323.109869C44.7963 1.6353 44.105 3.0834 43.6209 4.2216c-5.4572-.817-10.8864-.817-16.2317 0-.4842-1.1635-1.2006-2.5863-1.8275-3.696311-.0476-.0817-.1399-.123959-.2323-.109869-5.071.87338-9.9237 2.40318-14.4518 4.48238-.0392.0169-.0728.0451-.0951.0817C1.57795 18.7309-.943561 32.1443.293408 45.3914c.005597.0648.041978.1268.092353.1662C6.45866 50.0174 12.3413 52.7249 18.1147 54.5195c.0924.0282.1903-.0056.2491-.0817 1.3657-1.865 2.5831-3.8315 3.6269-5.8995.0616-.1211.0028-.2648-.1231-.3127-1.931-.7325-3.7697-1.6256-5.5384-2.6398-.1399-.0817-.1511-.2818-.0224-.3776.3722-.2789.7445-.5691 1.0999-.8621.0643-.0535.1539-.0648.2295-.031 11.6196 5.3051 24.1992 5.3051 35.6817 0 .0756-.0366.1652-.0253.2323.0282.3555.293.7277.586 1.1027.8649.1287.0958.1203.2959-.0196.3776-1.7687 1.0339-3.6074 1.9073-5.5412 2.637-.1259.0479-.1819.1944-.1203.3155 1.0662 2.0651 2.2836 4.0316 3.6241 5.8967.056.0789.1567.1127.2491.0845 5.8014-1.7946 11.684-4.5021 17.7569-8.9619.0532-.0394.0868-.0986.0924-.1634 1.4804-15.3151-2.4796-28.6185-10.4975-40.4119-.0196-.0394-.0531-.0676-.0923-.0845ZM23.7259 37.3253c-3.4983 0-6.3808-3.2117-6.3808-7.156 0-3.9443 2.8266-7.156 6.3808-7.156 3.5821 0 6.4367 3.2399 6.3807 7.156 0 3.9443-2.8266 7.156-6.3807 7.156Zm23.5919 0c-3.4982 0-6.3807-3.2117-6.3807-7.156 0-3.9443 2.8265-7.156 6.3807-7.156 3.5822 0 6.4367 3.2399 6.3808 7.156 0 3.9443-2.7986 7.156-6.3808 7.156Z"/></g></symbol><symbol id="linkedin" viewBox="0 0 32 32"><path d="M27.1429 3H4.85134C3.82991 3 3 3.84152 3 4.87455V27.1254C3 28.1585 3.82991 29 4.85134 29H27.1429C28.1643 29 29 28.1585 29 27.1254V4.87455C29 3.84152 28.1643 3 27.1429 3ZM10.858 25.2857H7.00446v-12.408h3.85934v12.408h-.0058ZM8.93125 11.183c-1.23616 0-2.23438-1.004-2.23438-2.23434 0-1.23036.99822-2.23437 2.23438-2.23437 1.23035 0 2.23435 1.00401 2.23435 2.23437 0 1.23614-.9982 2.23434-2.23435 2.23434ZM25.3031 25.2857h-3.8535V19.25c0-1.4393-.0291-3.2906-2.0023-3.2906-2.008 0-2.3156 1.5669-2.3156 3.1861v6.1402h-3.8536v-12.408h3.6969v1.6946h.0522c.5165-.975 1.7759-2.0022 3.6505-2.0022 3.9 0 4.6254 2.571 4.6254 5.9138v6.8018Z"/></symbol><symbol id="2035university" viewBox="0 0 32 32">
<g id="surface1">
<path style=" stroke:none;fill-rule:evenodd;fill:rgb(100%,100%,100%);fill-opacity:1;" d="M 16 32 C 24.835938 32 32 24.835938 32 16 C 32 7.164062 24.835938 0 16 0 C 7.164062 0 0 7.164062 0 16 C 0 24.835938 7.164062 32 16 32 Z M 21.234375 15.769531 C 21.554688 15.875 21.796875 16.046875 21.953125 16.292969 C 22.113281 16.53125 22.191406 17.097656 22.191406 17.984375 C 22.191406 18.644531 22.113281 19.160156 21.960938 19.527344 C 21.804688 19.890625 21.539062 20.164062 21.160156 20.359375 C 20.78125 20.546875 20.296875 20.640625 19.707031 20.640625 C 19.035156 20.640625 18.503906 20.53125 18.121094 20.3125 C 17.738281 20.089844 17.484375 19.820312 17.363281 19.5 C 17.242188 19.179688 17.183594 18.621094 17.183594 17.832031 L 17.183594 17.175781 L 19.308594 17.175781 L 19.308594 18.523438 C 19.308594 18.882812 19.328125 19.113281 19.371094 19.210938 C 19.414062 19.308594 19.511719 19.355469 19.664062 19.355469 C 19.828125 19.355469 19.9375 19.296875 19.988281 19.171875 C 20.042969 19.046875 20.066406 18.726562 20.066406 18.207031 L 20.066406 17.632812 C 20.066406 17.3125 20.03125 17.082031 19.957031 16.933594 C 19.882812 16.785156 19.777344 16.691406 19.632812 16.644531 C 19.488281 16.597656 19.210938 16.570312 18.796875 16.5625 L 18.796875 15.359375 C 19.300781 15.359375 19.613281 15.339844 19.730469 15.300781 C 19.851562 15.261719 19.9375 15.179688 19.988281 15.054688 C 20.042969 14.929688 20.066406 14.730469 20.066406 14.460938 L 20.066406 13.996094 C 20.066406 13.707031 20.035156 13.515625 19.972656 13.421875 C 19.914062 13.328125 19.820312 13.285156 19.691406 13.285156 C 19.542969 13.285156 19.441406 13.332031 19.386719 13.433594 C 19.332031 13.527344 19.308594 13.734375 19.308594 14.054688 L 19.308594 14.734375 L 17.183594 14.734375 L 17.183594 14.027344 C 17.183594 13.234375 17.371094 12.699219 17.742188 12.421875 C 18.113281 12.140625 18.703125 12 19.511719 12 C 20.523438 12 21.210938 12.195312 21.570312 12.582031 C 21.929688 12.96875 22.113281 13.503906 22.113281 14.191406 C 22.113281 14.65625 22.046875 14.996094 21.917969 15.203125 C 21.789062 15.410156 21.558594 15.597656 21.234375 15.769531 Z M 8.667969 19.058594 L 8.667969 20.476562 L 4 20.476562 L 4 19.289062 C 5.382812 17.078125 6.203125 15.710938 6.464844 15.1875 C 6.726562 14.660156 6.859375 14.25 6.859375 13.957031 C 6.859375 13.730469 6.816406 13.5625 6.738281 13.453125 C 6.660156 13.339844 6.539062 13.285156 6.378906 13.285156 C 6.21875 13.285156 6.097656 13.34375 6.015625 13.46875 C 5.941406 13.589844 5.902344 13.835938 5.902344 14.203125 L 5.902344 14.992188 L 4 14.992188 L 4 14.691406 C 4 14.222656 4.023438 13.859375 4.074219 13.589844 C 4.121094 13.320312 4.242188 13.054688 4.4375 12.796875 C 4.628906 12.535156 4.878906 12.339844 5.1875 12.207031 C 5.496094 12.070312 5.863281 12.003906 6.296875 12.003906 C 7.140625 12.003906 7.777344 12.210938 8.207031 12.621094 C 8.640625 13.027344 8.859375 13.546875 8.859375 14.171875 C 8.859375 14.648438 8.734375 15.152344 8.492188 15.679688 C 8.25 16.210938 7.535156 17.335938 6.34375 19.058594 Z M 14.5 14.976562 L 14.5 17.75 C 14.5 18.378906 14.464844 18.839844 14.394531 19.125 C 14.324219 19.414062 14.179688 19.683594 13.960938 19.929688 C 13.738281 20.179688 13.472656 20.359375 13.160156 20.46875 C 12.847656 20.582031 12.5 20.636719 12.117188 20.636719 C 11.609375 20.636719 11.1875 20.578125 10.851562 20.464844 C 10.511719 20.347656 10.246094 20.167969 10.046875 19.925781 C 9.847656 19.683594 9.703125 19.429688 9.621094 19.160156 C 9.535156 18.890625 9.496094 18.464844 9.496094 17.878906 L 9.496094 14.976562 C 9.496094 14.214844 9.5625 13.644531 9.695312 13.261719 C 9.832031 12.882812 10.097656 12.578125 10.496094 12.347656 C 10.902344 12.121094 11.386719 12.003906 11.957031 12.003906 C 12.421875 12.003906 12.839844 12.085938 13.207031 12.246094 C 13.574219 12.402344 13.851562 12.597656 14.03125 12.828125 C 14.214844 13.054688 14.335938 13.3125 14.402344 13.601562 C 14.46875 13.890625 14.5 14.347656 14.5 14.976562 Z M 12.378906 14.28125 C 12.378906 13.835938 12.355469 13.5625 12.308594 13.453125 C 12.269531 13.339844 12.167969 13.285156 12.003906 13.285156 C 11.847656 13.285156 11.742188 13.34375 11.691406 13.464844 C 11.640625 13.578125 11.617188 13.851562 11.617188 14.28125 L 11.617188 18.335938 C 11.617188 18.816406 11.640625 19.109375 11.683594 19.207031 C 11.734375 19.308594 11.835938 19.355469 11.996094 19.355469 C 12.152344 19.355469 12.253906 19.296875 12.304688 19.183594 C 12.355469 19.066406 12.378906 18.804688 12.378906 18.398438 Z M 16.675781 20.476562 L 16.675781 18.78125 L 15.074219 18.78125 L 15.074219 20.476562 Z M 27.585938 13.492188 L 27.585938 12.164062 L 23.03125 12.164062 L 22.941406 16.351562 L 25.042969 16.351562 C 25.042969 16.109375 25.050781 15.957031 25.070312 15.890625 C 25.089844 15.824219 25.132812 15.757812 25.199219 15.703125 C 25.265625 15.644531 25.347656 15.613281 25.445312 15.613281 C 25.601562 15.613281 25.710938 15.671875 25.777344 15.785156 C 25.84375 15.898438 25.878906 16.109375 25.878906 16.421875 L 25.878906 18.066406 C 25.871094 18.644531 25.863281 18.972656 25.855469 19.046875 C 25.851562 19.125 25.820312 19.195312 25.75 19.257812 C 25.6875 19.324219 25.605469 19.355469 25.5 19.355469 C 25.273438 19.355469 25.140625 19.242188 25.101562 19.019531 C 25.0625 18.792969 25.042969 18.410156 25.042969 17.871094 L 25.042969 17.355469 L 22.921875 17.355469 L 22.921875 17.804688 C 22.921875 18.578125 23.007812 19.152344 23.183594 19.519531 C 23.359375 19.890625 23.652344 20.167969 24.070312 20.359375 C 24.488281 20.542969 24.96875 20.636719 25.515625 20.636719 C 26.003906 20.636719 26.414062 20.574219 26.75 20.449219 C 27.089844 20.324219 27.355469 20.144531 27.542969 19.910156 C 27.730469 19.675781 27.855469 19.417969 27.910156 19.144531 C 27.96875 18.867188 28 18.4375 28 17.847656 L 28 16.660156 C 28 15.75 27.847656 15.136719 27.546875 14.820312 C 27.25 14.496094 26.808594 14.335938 26.222656 14.335938 C 25.707031 14.335938 25.28125 14.527344 24.953125 14.90625 L 24.953125 13.492188 Z M 27.585938 13.492188 "/>
</g>
</symbol></svg>
