<?xml version="1.0" standalone="no"?>
<!DOCTYPE svg PUBLIC "-//W3C//DTD SVG 20010904//EN"
 "http://www.w3.org/TR/2001/REC-SVG-20010904/DTD/svg10.dtd">
<svg version="1.0" xmlns="http://www.w3.org/2000/svg"
 width="512.000000pt" height="512.000000pt" viewBox="0 0 512.000000 512.000000"
 preserveAspectRatio="xMidYMid meet">
<metadata>
Created by potrace 1.14, written by Peter Selinger 2001-2017
</metadata>
<g transform="translate(0.000000,512.000000) scale(0.100000,-0.100000)"
fill="#000000" stroke="none">
<path d="M388 5099 c-23 -12 -46 -35 -58 -59 -20 -39 -20 -54 -20 -2479 0
-1891 3 -2446 12 -2468 20 -45 66 -82 112 -88 22 -3 996 -5 2163 -3 l2122 3
28 21 c15 11 36 36 45 55 17 32 18 171 18 2484 l0 2450 -26 39 c-49 71 133 66
-2226 66 -2104 -1 -2134 -1 -2170 -21z"/>
</g>
</svg>
